# xmcd
#
# Track frame offsets: 
#        150
#        20801
#        40227
#        55412
#        74392
#        91994
#        109352
#        130046
#        150767
#        172185
#        191687
#        210443
#        229864
#        248018
#        267493
#        290995
#        309554
#
# Disc length: 4434 seconds
#
# Revision: 2
# Processed by: cddbd v1.5.2PL0 Copyright (c) Steve Scherf et al.
# Submitted via: ExactAudioCopy v1.0b3
#
DISCID=fb115011
DTITLE=??? - ?????? (?) Greatest Hits 2012
DYEAR=2012
DGENRE=Pop
TTITLE0=?
TTITLE1=Everyone is No. 1
TTITLE2=?
TTITLE3=??
TTITLE4=??
TTITLE5=????
TTITLE6=????????
TTITLE7=??. ???. ???
TTITLE8=???
TTITLE9=??
TTITLE10=????
TTITLE11=?????
TTITLE12=?????
TTITLE13=????????
TTITLE14=???????
TTITLE15=????? (???)
TTITLE16=????????????
EXTD=
EXTT0=
EXTT1=
EXTT2=
EXTT3=
EXTT4=
EXTT5=
EXTT6=
EXTT7=
EXTT8=
EXTT9=
EXTT10=
EXTT11=
EXTT12=
EXTT13=
EXTT14=
EXTT15=
EXTT16=
PLAYORDER=
